<svg id="Layer_1" data-name="Layer 1" xmlns="http://www.w3.org/2000/svg" width="17.69cm" height="17.63cm" viewBox="0 0 501.54 499.71"><defs><style>.cls-1{fill:#eaf7fd;}.cls-2{fill:#2c119c;}.cls-3{fill:#ffc363;}.cls-4{fill:#fcfff8;}.cls-5{fill:#df9610;}.cls-6{fill:#722c09;}.cls-7{fill:#060547;}.cls-8{fill:#f5f1df;}.cls-9{fill:#fd9f01;}.cls-10{fill:#fc0310;}.cls-11{fill:#cc0606;}.cls-12{fill:#f61202;}.cls-13{fill:#ff3e40;}.cls-14{fill:#e80b05;}.cls-15{fill:#00d7ff;}.cls-16{fill:#feb8c1;}.cls-17{fill:#12125e;}.cls-18{fill:#06015f;}.cls-19{fill:#1f2557;}.cls-20{fill:#fc7750;}.cls-21{fill:#fff;}.cls-22{fill:#e8e8ec;}.cls-23{fill:#050542;}.cls-24{fill:#3d3d93;}.cls-25{fill:#ff949e;}.cls-26{fill:#ffc410;}.cls-27,.cls-28{fill:#fcbc1d;}.cls-27{opacity:0.15;}.cls-29{fill:#ff4c8b;}.cls-30{fill:#fc327f;}.cls-31{fill:#040428;}.cls-32{fill:#06005a;}.cls-33{fill:#ff2d5f;}.cls-34{fill:#db0b3f;}.cls-35{fill:#030328;opacity:0.3;}</style></defs><title>Delivery</title><g id="background"><path class="cls-1" d="M5.68,483.43H501.54s-132.72-59.66-97.66-126.59S527.06,182.46,493.52,90.1c-29-79.77-137-126.83-215.35-53.81S87.46,19.13,17,139.85C-63.18,277.22,171.2,384,83,437.11,5.77,483.59,5.68,483.43,5.68,483.43Z"/><rect class="cls-2" x="5.68" y="483.84" width="495.87" height="1.42"/></g><path class="cls-3" d="M291.67,294.38l.78,33a.29.29,0,0,1,0,0,3.12,3.12,0,0,1-3,3.16l-58,1.37a3.12,3.12,0,0,1-3.19-3l-.78-33a3.12,3.12,0,0,1,3-3.19l58-1.37A3.12,3.12,0,0,1,291.67,294.38Z"/><rect class="cls-4" x="232.33" y="295.63" width="18.06" height="4.07" rx="2.04" ry="2.04" transform="translate(-6.96 5.78) rotate(-1.35)"/><rect class="cls-4" x="269" y="314.4" width="20.36" height="12.22" rx="6.11" ry="6.11" transform="translate(-7.49 6.68) rotate(-1.35)"/><path class="cls-5" d="M292.45,327.42a3.12,3.12,0,0,1-3,3.16l-58,1.37a3.12,3.12,0,0,1-3.19-3l-.58-24.51c2.94,1.29,7.48,3.7,7.43,6.59-.2,13,5.36,8.37,10.82,13.41s21.89,2.27,29.1,4.31C279.62,330,287.47,328.59,292.45,327.42Z"/><polygon class="cls-6" points="270.95 316.46 270.94 316.32 287.51 315.93 287.51 316.07 270.95 316.46"/><polygon class="cls-6" points="270.99 318.5 270.99 318.35 285.6 318.01 285.61 318.15 270.99 318.5"/><path class="cls-3" d="M222.5,332.35l27-1h0a2.56,2.56,0,0,1,2.62,2.47l1.7,47.54a2.56,2.56,0,0,1-2.47,2.65l-27,1a2.56,2.56,0,0,1-2.65-2.47L220,335A2.56,2.56,0,0,1,222.5,332.35Z"/><rect class="cls-4" x="218.29" y="371.89" width="14.81" height="3.34" rx="1.67" ry="1.67" transform="translate(-139.56 612.45) rotate(-92.05)"/><rect class="cls-4" x="235.7" y="337.32" width="16.69" height="10.02" rx="5.01" ry="5.01" transform="translate(-89.35 598.44) rotate(-92.05)"/><path class="cls-5" d="M249.58,331.38a2.56,2.56,0,0,1,2.62,2.47l1.7,47.54a2.56,2.56,0,0,1-2.47,2.65l-20.08.72c1-2.43,3-6.17,5.33-6.16,10.67,0,6.81-4.48,10.89-9s1.64-18,3.25-23.9C251.84,341.87,250.59,335.46,249.58,331.38Z"/><rect class="cls-6" x="240.45" y="335.54" width="0.12" height="13.58" transform="matrix(1, -0.04, 0.04, 1, -12.07, 8.81)"/><rect class="cls-6" x="242.15" y="337.09" width="0.12" height="11.98" transform="translate(-12.1 8.87) rotate(-2.05)"/><path class="cls-3" d="M275.33,412.71l-1.14-27v0a2.56,2.56,0,0,0-2.66-2.42l-47.53,2a2.56,2.56,0,0,0-2.45,2.66l1.14,27a2.56,2.56,0,0,0,2.66,2.45l47.53-2A2.56,2.56,0,0,0,275.33,412.71Z"/><rect class="cls-4" x="226.6" y="411.07" width="14.81" height="3.34" rx="1.67" ry="1.67" transform="translate(-17.25 10.27) rotate(-2.42)"/><rect class="cls-4" x="255.36" y="387" width="16.69" height="10.02" rx="5.01" ry="5.01" transform="translate(-16.34 11.5) rotate(-2.42)"/><path class="cls-5" d="M274.19,385.64a2.56,2.56,0,0,0-2.66-2.42l-47.53,2a2.56,2.56,0,0,0-2.45,2.66L222.4,408c2.34-1.21,5.92-3.43,5.72-5.79-.87-10.64,3.94-7.14,8.12-11.56s17.78-3,23.57-5.1C263.55,384.2,270,384.95,274.19,385.64Z"/><polygon class="cls-6" points="257.19 395.88 257.19 395.76 270.76 395.19 270.76 395.3 257.19 395.88"/><polygon class="cls-6" points="257.12 394.21 257.12 394.1 269.09 393.59 269.09 393.7 257.12 394.21"/><path class="cls-3" d="M254.63,331.23l27-1h0a2.56,2.56,0,0,1,2.62,2.47l1.7,47.54a2.56,2.56,0,0,1-2.47,2.65l-27,1a2.56,2.56,0,0,1-2.65-2.47l-1.7-47.54A2.56,2.56,0,0,1,254.63,331.23Z"/><rect class="cls-4" x="250.42" y="370.76" width="14.81" height="3.34" rx="1.67" ry="1.67" transform="translate(-105.17 643.39) rotate(-92.05)"/><rect class="cls-4" x="267.82" y="336.2" width="16.69" height="10.02" rx="5.01" ry="5.01" transform="translate(-54.95 629.38) rotate(-92.05)"/><path class="cls-5" d="M281.7,330.26a2.56,2.56,0,0,1,2.62,2.47l1.7,47.54a2.56,2.56,0,0,1-2.47,2.65l-20.08.72c1-2.43,3-6.17,5.33-6.16,10.67,0,6.81-4.48,10.89-9s1.64-18,3.25-23.9C284,340.75,282.72,334.33,281.7,330.26Z"/><rect class="cls-6" x="272.58" y="334.42" width="0.12" height="13.58" transform="matrix(1, -0.04, 0.04, 1, -12.01, 9.96)"/><rect class="cls-6" x="274.27" y="335.96" width="0.12" height="11.98" transform="translate(-12.04 10.01) rotate(-2.05)"/><rect class="cls-7" x="101.92" y="336.26" width="4.26" height="48.31" rx="2.13" ry="2.13" transform="translate(-2.32 0.68) rotate(-0.37)"/><rect class="cls-7" x="73.41" y="335.14" width="4.26" height="48.31" rx="2.13" ry="2.13" transform="translate(121.69 -4.94) rotate(19.09)"/><rect class="cls-7" x="85.2" y="314.34" width="4.26" height="48.31" rx="2.13" ry="2.13" transform="translate(-250.6 428) rotate(-90.37)"/><circle class="cls-7" cx="108.57" cy="445.03" r="37.97"/><circle class="cls-8" cx="108.57" cy="445.03" r="20.2"/><polygon class="cls-9" points="109.13 465.23 108.01 465.23 108.01 444.47 128.78 444.47 128.78 445.59 109.13 445.59 109.13 465.23"/><polygon class="cls-9" points="109.13 445.59 88.37 445.59 88.37 444.47 108.01 444.47 108.01 424.83 109.13 424.83 109.13 445.59"/><polygon class="cls-9" points="122.46 459.71 107.78 445.03 122.46 430.35 123.25 431.14 109.37 445.03 123.25 458.92 122.46 459.71"/><polygon class="cls-9" points="94.7 459.69 93.91 458.9 107.78 445.03 93.89 431.14 94.68 430.35 109.37 445.03 94.7 459.69"/><polygon class="cls-9" points="101.95 464.13 100.9 463.74 107.58 446.06 90.2 453.46 89.76 452.43 109.56 444 101.95 464.13"/><polygon class="cls-9" points="115.89 463.88 107.52 443.97 127.39 452.43 126.94 453.46 109.63 446.09 116.93 463.44 115.89 463.88"/><polygon class="cls-9" points="109.53 445.98 89.41 438.59 89.8 437.53 107.61 444.08 100.9 426.33 101.95 425.93 109.53 445.98"/><polygon class="cls-9" points="107.58 446.06 115.19 425.93 116.24 426.33 109.56 444 126.94 436.6 127.39 437.63 107.58 446.06"/><circle class="cls-7" cx="108.57" cy="445.03" r="11.92"/><path class="cls-2" d="M162.28,446s-18,11.93-37.52,1.73-31.21-9.9-38.42,0c-2.83,3.9-4.65,6.59-5.8,8.41a3.64,3.64,0,0,0,1.65,5.28c9.57,4.1,36.27,13.37,59.68,1.3,29.11-15,33.92-12.32,33.92-12.32Z"/><path class="cls-7" d="M100.92,447.4a13,13,0,0,1-3.66,12Z"/><path class="cls-7" d="M103.8,448.09a13,13,0,0,1-3.66,12Z"/><path class="cls-7" d="M106.68,448.77a13,13,0,0,1-3.66,12Z"/><path class="cls-7" d="M109.56,449.45a13,13,0,0,1-3.66,12Z"/><path class="cls-7" d="M112.44,450.13a13,13,0,0,1-3.66,12Z"/><path class="cls-7" d="M115.31,450.81a13,13,0,0,1-3.66,12Z"/><circle class="cls-7" cx="339.62" cy="445.03" r="37.97"/><circle class="cls-8" cx="339.62" cy="445.03" r="20.2"/><polygon class="cls-9" points="340.19 465.23 339.06 465.23 339.06 444.47 359.83 444.47 359.83 445.59 340.19 445.59 340.19 465.23"/><polygon class="cls-9" points="340.19 445.59 319.42 445.59 319.42 444.47 339.06 444.47 339.06 424.83 340.19 424.83 340.19 445.59"/><polygon class="cls-9" points="353.51 459.71 338.83 445.03 353.51 430.35 354.31 431.14 340.42 445.03 354.3 458.92 353.51 459.71"/><polygon class="cls-9" points="325.75 459.69 324.96 458.9 338.83 445.03 324.94 431.14 325.73 430.35 340.42 445.03 325.75 459.69"/><polygon class="cls-9" points="333 464.13 331.95 463.74 338.63 446.06 321.25 453.46 320.81 452.43 340.61 444 333 464.13"/><polygon class="cls-9" points="346.94 463.88 338.57 443.97 358.44 452.43 358 453.46 340.68 446.09 347.98 463.44 346.94 463.88"/><polygon class="cls-9" points="340.58 445.98 320.46 438.59 320.85 437.53 338.66 444.08 331.95 426.33 333 425.93 340.58 445.98"/><polygon class="cls-9" points="338.63 446.06 346.24 425.93 347.29 426.33 340.61 444 358 436.6 358.44 437.63 338.63 446.06"/><circle class="cls-7" cx="339.62" cy="445.03" r="11.92"/><path class="cls-7" d="M159.67,445s4.45,21.15,22.63,20.23,22.26-16.13,22.26-24.66Z"/><path class="cls-10" d="M308.72,278.87s36.37,50.54,33.43,116.05l-53.21,22.46s24.07-57.64,18.18-90.59-6.65-49.71-6.65-49.71Z"/><path class="cls-7" d="M215.2,307.19l-22.56,36.1-41.33,5s8.08-12.48-17.87-16.65c-9.92-1.59-15-5.62-16.23-10-2-7,6.18-14.83,20.39-14.52l2.2,0C163.9,307.66,215.2,307.19,215.2,307.19Z"/><path class="cls-11" d="M303.77,400.3s6.44-6.72,9.93-8.29,17.09-9.51,28.61-3.48Z"/><path class="cls-12" d="M278,434.35c-21,13-133.74,11.48-148,9A238,238,0,0,1,32.25,402h0c.35-.44,45.44-56.33,160.38-58.74l59.9,71.54s17.68-1.12,28.24-22.81,21.68-43.92,15.57-69.5-5.69-52.3-5.69-52.3l8.19,5.71,1.63,1.14s16.3,53.32,18.17,71.93S299,421.33,278,434.35Z"/><rect class="cls-7" x="290.72" y="240.65" width="1.39" height="22.4" transform="translate(28.55 -29.67) rotate(6.13)"/><path class="cls-13" d="M291.45,241.59a2.43,2.43,0,0,0,3.17,2.54,8.46,8.46,0,0,0,1.84-15.23,2.6,2.6,0,0,0-3.95,2Z"/><rect class="cls-7" x="286.81" y="248.74" width="0.97" height="15.61" transform="translate(-63.23 96.9) rotate(-17.28)"/><path class="cls-13" d="M284.48,250a1.69,1.69,0,0,0,2.73.75,5.9,5.9,0,0,0-3-10.25,1.81,1.81,0,0,0-2,2.35Z"/><path class="cls-12" d="M285.89,427.66s7.62,10.6,15.86,2.21c7.87-8,23.68-20.93,39.34-20.13s36,12.55,36.18,5.09S366,386.3,336.9,388.71,290.12,407.77,285.89,427.66Z"/><path class="cls-12" d="M323.52,277.43a12.74,12.74,0,0,1-2.41.95c-8.89,2.54-20.63-1.29-20.63-1.29l-14-14a219,219,0,0,1,26.72-15.24,15.31,15.31,0,0,1,4.25-1.34c9.62-1.37,11,11.56,11.34,15.83S329.85,274.12,323.52,277.43Z"/><path class="cls-13" d="M286.48,263.08s7-6.44,12.74-2,4.52,13.8,1.26,16l-9.7,1.29S288.76,263.62,286.48,263.08Z"/><circle class="cls-2" cx="182.12" cy="446.21" r="5.06"/><circle class="cls-7" cx="285.58" cy="265.27" r="4.45"/><path class="cls-11" d="M32.25,402s46.94-27.14,105-15.84c38.26,7.45,49.42,51.61,49.42,51.61l-4.54-.22Z"/><path class="cls-14" d="M278,434.35c-21,13-133.74,11.48-148,9A238,238,0,0,1,32.25,402h0c.49-.21,91.59-39.15,127.42,1.76,22.45,27,22.45,33.8,22.45,33.8s74.77,7.07,96.29-24,31.65-50.09,29.81-75.6c-1.66-22.92-9.52-53.79-11.09-59.81a1.45,1.45,0,0,1,.65-1.61h0a1.93,1.93,0,0,1,2.11.06h0a2.11,2.11,0,0,1,.81,1.12c1.92,6.33,16.22,53.87,18,71.23C320.5,367.64,299,421.33,278,434.35Z"/><path class="cls-12" d="M115.73,401.56s3.68,12.57-7.57,26.56Z"/><path class="cls-12" d="M123.06,401.51s3.68,12.57-7.57,26.56Z"/><path class="cls-12" d="M130.66,401.51s3.68,12.57-7.57,26.56Z"/><path class="cls-7" d="M323.52,277.43c1-16.86-3.44-26.68-6.07-30.93,9.62-1.37,11,11.56,11.34,15.83S329.85,274.12,323.52,277.43Z"/><path class="cls-11" d="M219.66,440.74A307,307,0,0,1,182,438.2l.15-1.21c19.92,2.48,37.62,3.14,52.62,2,22-1.71,37.51-7.35,46.05-16.76,8.73-9.62,16.41-22.76,22.22-38,4.51-11.85,7.82-25,8.85-35.14.93-9.15-2.8-27.82-6.09-41.87-3.57-15.26-7.42-28.51-7.46-28.64l1.17-.34c0,.13,3.89,13.41,7.47,28.7,4.82,20.57,6.87,34.8,6.12,42.28-1,10.26-4.38,23.51-8.93,35.45C298.36,400,290.6,413.29,281.77,423s-24.52,15.42-46.86,17.16Q227.69,440.74,219.66,440.74Z"/><polygon class="cls-14" points="300.91 278.51 311.96 283.81 308.73 278.87 300.48 277.09 300.91 278.51"/><path class="cls-4" d="M319.47,317.47l1.41.47a2,2,0,0,1,1.26,1.29c1.17,3.84,5.35,18.36,5.78,31.74a2,2,0,0,1-3.39,1.41l-1.67-1.76a2,2,0,0,1-.54-1.24c-.2-3.25-1.24-17.07-5.33-29.43A2,2,0,0,1,319.47,317.47Z"/><path class="cls-3" d="M116.92,290.34v44a.39.39,0,0,1,0,0,4.16,4.16,0,0,1-4.16,4.11H35.41a4.16,4.16,0,0,1-4.16-4.16v-44a4.16,4.16,0,0,1,4.16-4.16h77.35A4.16,4.16,0,0,1,116.92,290.34Z"/><rect class="cls-4" x="37.74" y="290.42" width="24.07" height="5.43" rx="2.71" ry="2.71"/><rect class="cls-4" x="85.88" y="316.61" width="27.14" height="16.28" rx="8.14" ry="8.14"/><path class="cls-5" d="M116.91,334.38a4.16,4.16,0,0,1-4.16,4.11H35.41a4.16,4.16,0,0,1-4.16-4.16V301.66c3.88,1.81,9.85,5.17,9.7,9-.68,17.34,6.88,11.33,14,18.21S84,332.6,93.58,335.55C99.74,337.45,110.23,335.79,116.91,334.38Z"/><rect class="cls-6" x="88.6" y="318.92" width="22.09" height="0.19"/><rect class="cls-6" x="88.6" y="321.63" width="19.48" height="0.19"/><path class="cls-3" d="M114.43,246.1V283a.33.33,0,0,1,0,0,3.48,3.48,0,0,1-3.48,3.45H46.13A3.48,3.48,0,0,1,42.65,283V246.1a3.48,3.48,0,0,1,3.48-3.48h64.81A3.48,3.48,0,0,1,114.43,246.1Z"/><rect class="cls-4" x="48.09" y="246.17" width="20.17" height="4.55" rx="2.27" ry="2.27"/><rect class="cls-4" x="88.42" y="268.11" width="22.74" height="13.64" rx="6.82" ry="6.82"/><path class="cls-5" d="M114.43,283a3.48,3.48,0,0,1-3.48,3.45H46.13A3.48,3.48,0,0,1,42.65,283V255.59c3.25,1.52,8.25,4.33,8.12,7.55-.57,14.53,5.77,9.49,11.72,15.26s24.38,3.11,32.38,5.58C100,285.57,108.83,284.18,114.43,283Z"/><rect class="cls-6" x="90.7" y="270.05" width="18.51" height="0.16"/><rect class="cls-6" x="90.7" y="272.32" width="16.32" height="0.16"/><path class="cls-3" d="M57.63,213.21v27.06a.24.24,0,0,0,0,0,2.56,2.56,0,0,0,2.56,2.53h47.58a2.56,2.56,0,0,0,2.56-2.56V213.21a2.56,2.56,0,0,0-2.56-2.56H60.18A2.56,2.56,0,0,0,57.63,213.21Z"/><rect class="cls-4" x="91.52" y="213.26" width="14.81" height="3.34" rx="1.67" ry="1.67" transform="translate(197.84 429.86) rotate(180)"/><rect class="cls-4" x="60.02" y="229.37" width="16.69" height="10.02" rx="5.01" ry="5.01" transform="translate(136.73 468.76) rotate(180)"/><path class="cls-5" d="M57.63,240.3a2.56,2.56,0,0,0,2.56,2.53h47.58a2.56,2.56,0,0,0,2.56-2.56v-20.1c-2.39,1.11-6.06,3.18-6,5.54.42,10.67-4.23,7-8.61,11.2S77.85,239.21,72,241C68.19,242.19,61.74,241.17,57.63,240.3Z"/><rect class="cls-6" x="61.46" y="230.79" width="13.58" height="0.12"/><rect class="cls-6" x="63.06" y="232.46" width="11.98" height="0.12"/><rect class="cls-15" x="85.88" y="211.13" width="6.78" height="129.47"/><path class="cls-3" d="M264.48,168.35v34.78s0,0,0,0c0,1.8,1,3.25,2.25,3.25h41.93c1.25,0,2.25-1.47,2.25-3.29V168.35c0-1.82-1-3.29-2.25-3.29H266.74C265.49,165.06,264.48,166.53,264.48,168.35Z"/><rect class="cls-4" x="294.35" y="168.41" width="13.05" height="4.29" rx="2.15" ry="2.15" transform="translate(601.76 341.11) rotate(-180)"/><rect class="cls-4" x="266.59" y="189.12" width="14.71" height="12.87" rx="6.44" ry="6.44" transform="translate(547.9 391.1) rotate(-180)"/><path class="cls-5" d="M264.48,203.16c0,1.8,1,3.25,2.25,3.25h41.93c1.25,0,2.25-1.47,2.25-3.29V177.3c-2.1,1.43-5.34,4.09-5.26,7.12.37,13.71-3.73,9-7.58,14.4s-15.77,2.94-20.95,5.27C273.8,205.58,268.11,204.28,264.48,203.16Z"/><rect class="cls-6" x="267.86" y="190.95" width="11.97" height="0.12"/><rect class="cls-6" x="269.27" y="193.09" width="10.56" height="0.12"/><g id="boy"><g id="leg"><polygon class="cls-16" points="238.4 462.25 242.05 483 259.63 483 258.37 462.25 238.4 462.25"/><path class="cls-17" d="M258.37,462.25c-6.13,4.09-13.8,3.24-18.91,1.93a8.61,8.61,0,0,1-6.33-6.85,134.5,134.5,0,0,0-3.39-14.1c-12.84-44-51.16-115-79.81-129.52a55.77,55.77,0,0,1-10.07-6.46h0c-20.41-16.7-10.61-38.16-10.61-38.16l64.89-10.16,12.58,24.47C259.94,316,258.37,462.25,258.37,462.25Z"/><path class="cls-18" d="M240.34,493.5a5.21,5.21,0,0,0-.09,3.54,3.84,3.84,0,0,0,2.66,2.16c4.38,1.32,37.93-.37,37.93-.37s10.49-1.33,10.57-5a7.68,7.68,0,0,0,0-1.08h0c0-.07,0-.13,0-.2a5.24,5.24,0,0,0-.2-.86c-.66-2-2.44-2.8-4.61-2.74-2.65.08-11.09-2.33-18.76-8.2h0q-.71-.54-1.41-1.12c-8-6.69-12.49-6.19-8.43-1,0,0-.54.47-1.38,1.11-1.84,1.39-5.08,3.56-7.12,3.28-3-.41-2.65-3.8-4.14-4.38s-5.29-1.57-5.94,7.86c0,4.88.85,6.66,1,6.91Z"/><path class="cls-19" d="M267.19,486.6c.79,1.86,4.75,4.77,4.8,6.87,0,0,4.78,3.24,7.26,2.36l.28-.12c1.6-.86,7.9-2.29,11.82-3.12a5.24,5.24,0,0,0-.2-.86c-.66-2-2.44-2.8-4.61-2.74a7.54,7.54,0,0,1-1.23-.09h0c-3.48-.48-10.8-3-17.53-8.11h0S266.39,484.74,267.19,486.6Z"/><path class="cls-20" d="M279.24,495.84l.28-.12c1.6-.86,7.9-2.29,11.82-3.12a5.24,5.24,0,0,0-.2-.86c-.66-2-2.44-2.8-4.61-2.74a7.54,7.54,0,0,1-1.23-.09c.93.42,3.33,1.69,1.05,2.83-2.77,1.39-6.4-1.1-7.55,2.27C278.37,495.27,278.68,495.74,279.24,495.84Z"/><path class="cls-21" d="M240.25,497a3.84,3.84,0,0,0,2.66,2.16c4.38,1.32,37.93-.37,37.93-.37s10.49-1.33,10.57-5a7.68,7.68,0,0,0,0-1.08h0a5.54,5.54,0,0,0-.22-1.05h0c-.61,1.41-10.28,2-12.34,2.85s-5.4-.74-7.87-1.7-11,2.4-12.67,1.14-7.63-2.8-9.58-2.06-8.34,1.53-8.34,1.53A5.21,5.21,0,0,0,240.25,497Z"/><path class="cls-19" d="M266.39,497.29s-4.9-2.19-7-1a33.84,33.84,0,0,1-4.62,2.05Z"/><path class="cls-22" d="M240.25,497a3.84,3.84,0,0,0,2.66,2.16c4.38,1.32,37.93-.37,37.93-.37s10.49-1.33,10.57-5a7.68,7.68,0,0,0,0-1.08c-1.86,4.21-6.07,2.16-8.21,3s-4,3.14-8.93.26-5.95,1.33-12,1.66-22-.65-22-.65Z"/><path class="cls-20" d="M264.33,485.13s1.44,3.5-4.3,2.59-13.31-2.57-13.31-2.57,18.25,8.47,19.11,5C267.66,487.2,264.33,485.13,264.33,485.13Z"/><path class="cls-19" d="M239.34,486.56c0,4.88.85,6.66,1,6.91l0,0s6.14-1,8.34-1.53a11.36,11.36,0,0,1,5.15.34c-.42-3.61-8.37-6.07-9.17-6.82s1.26-1.84,1.26-1.84a34.09,34.09,0,0,1,8,1.48c5.39,1.49,7.63,1.43,7-.93s-4.35-4.42-4.35-4.42c-1.84,1.39-5.08,3.56-7.12,3.28-3-.41-2.65-3.8-4.14-4.38S240,477.14,239.34,486.56Z"/><path class="cls-23" d="M233,456.78h0a2.24,2.24,0,0,1,2-1.28h22.72Z"/><path class="cls-24" d="M234.4,456l23-.49a1.65,1.65,0,0,1,1.68,1.59l.18,4.85a1.65,1.65,0,0,1-.93,1.55c-2.83,1.37-11.61,4.78-23.08.92a1.65,1.65,0,0,1-.93-.78,12.9,12.9,0,0,1-1.51-6A1.65,1.65,0,0,1,234.4,456Z"/></g><g id="head"><g id="neck"><path class="cls-16" d="M209.05,156.13h0c-13.92-3.44-21.94-23-21.94-23,5.8-3.26,9.05-12,9.05-12l10.42,5.42,2.46,1.28A52.19,52.19,0,0,0,209.05,156.13Z"/><path class="cls-25" d="M209.05,156.13a12,12,0,0,1-3.7-6.13c-1-4-4.53-6-4.32-10.22s-2.46-9.23-2.46-9.23l8-4,2.46,1.28A52.19,52.19,0,0,0,209.05,156.13Z"/></g><g id="face"><path class="cls-16" d="M223.34,121.18a18.79,18.79,0,0,1-4.89,0s-3.08,13.76-14.31,13.22c-4.93-.24-7.45-4.18-8.73-8.53a30.51,30.51,0,0,1-1-4.9,41.46,41.46,0,0,1-.26-6.86l1-1c2.78-2.77,11-10.64,17.42-14,2.65-1.37,5-2,6.6-1.15a8.32,8.32,0,0,1,1.71,1.15h0a6,6,0,0,1,2,3.69,9.4,9.4,0,0,1-.85,5.11s-.12.59-.31,1.44c-.28,1.25-.71,3.06-1.14,4.36C219.9,115.92,225.87,120.81,223.34,121.18Z"/><path class="cls-25" d="M222.07,108s-.12.59-.31,1.44c0,0-5.94-4.88-8.58-2.74s-5.93,15.25-9,18c-2.21,2-6.56,1.6-8.8,1.23a30.51,30.51,0,0,1-1-4.9l.72-7.85c2.78-2.77,11-10.64,17.42-14h8.32l2,3.69A9.4,9.4,0,0,1,222.07,108Z"/><path class="cls-26" d="M227.54,111s-10.76-7.15-14.35-5.78c-.78.3-1.55,1.41-2.34,3-1.51,3-3.07,7.6-4.82,11.33-1.57,3.34-3.29,6-5.26,6.08-5.32.3-17.34-7.3-17.34-7.3s-.46-2.37-.83-5.81c-.57-5.33-.93-13.22,1-18.89a14.72,14.72,0,0,1,1.19-2.66c5-8.67,15.82-14.76,26.16-11.41S229.82,93,227.54,111Z"/><path class="cls-18" d="M213.18,105.21s2.87-1.67,14.35,5.78l2.66,1.67-2.28-6.38S216.52,102.43,213.18,105.21Z"/><path class="cls-18" d="M210.84,108.17c-1.51,3-3.07,7.6-4.82,11.33a35.56,35.56,0,0,1-23.42-7c-.57-5.33-.93-13.22,1-18.89C187.36,97.27,197.9,106.52,210.84,108.17Z"/></g></g><g id="body"><path class="cls-16" d="M253.94,183.39a13.3,13.3,0,0,0,.55,12.87l10-5.24V177.35S259.88,183.39,253.94,183.39Z"/><path class="cls-26" d="M218.16,237.25c.49,3.67-.26,9.07-1.56,14.88-.43,1.91-.92,3.87-1.45,5.83-.85,3.15-1.79,6.29-2.73,9.24h0c-1.3,4.07-2.59,7.77-3.61,10.61-1.24,3.43-2.09,5.59-2.09,5.59-5.7-11.79-39.65,7.87-62.09-1.64A33.85,33.85,0,0,1,130.42,271h0q-.73-1-1.38-1.91l.21,0a269.49,269.49,0,0,1,2.48-44.39,172.36,172.36,0,0,1,10.83-41,118.79,118.79,0,0,1,12.54-23.15h0c11.42-14.72,21.17-21.72,26.82-24.93a36.32,36.32,0,0,1,5.2-2.48h0l0,.06c11.51,22.21,21.91,22.95,21.91,22.95,1.55,6.85,2.95,14.55,4.13,21.9v0c.56,3.49,1.08,6.9,1.55,10.1h0c.7,4.81,1.27,9.13,1.71,12.53.56,4.37.88,7.2.92,7.54v0S209.1,205.94,193.5,193a14.28,14.28,0,0,0-22.79,6.79c-.06.19-.12.39-.17.59a24,24,0,0,0,9.84,26.42c9.67,6.38,23.32,12.57,38.08,10.44l-.28,0Z"/><path class="cls-26" d="M254.49,196.26h0a21.65,21.65,0,0,1-3.25,2.77,17.1,17.1,0,0,1-7.42,3.09c-7.56,1-10.95,5.57-15.68,4.78a11.68,11.68,0,0,0-5,.23,22.07,22.07,0,0,1-5.51,1.13h-.29L213.19,178l0,.06c.29.71,3.16,7.32,9.84,6.93,6.86-.4,10.14,1.91,13.35.72,4.1-1.52,8.28-1.26,12.07-1.44a18.3,18.3,0,0,0,5.48-.91h0l0,0a17.36,17.36,0,0,0-.82,9.4A11.34,11.34,0,0,0,254.49,196.26Z"/><path class="cls-18" d="M254.49,196.26h0a25.19,25.19,0,0,1-5.12,3.94c-2-1.6-6.24-7.56-2.54-15.85a30.76,30.76,0,0,0,7.11-1h0l0,0a18.53,18.53,0,0,0-.82,9.4A10.45,10.45,0,0,0,254.49,196.26Z"/><path class="cls-18" d="M205,163.21c-12.11-3.35-20.67-21.73-23.12-27.59a36.32,36.32,0,0,1,5.2-2.48l0,.05c6.25,10.1,21.91,22.95,21.91,22.95C204.33,156.65,205,163.21,205,163.21Z"/><path class="cls-16" d="M263.5,197.69l3,13.43a46.24,46.24,0,0,1,15.28-8.64c8.54-2.61,13.17-13.47,6.94-17.79a8,8,0,0,0-10.86,1s1.11-9.25-2.41-7.44S269.64,198.1,263.5,197.69Z"/><path class="cls-18" d="M218.16,237.25c.62,3.33.2,8.72-1.34,14.9-18.7.76-57-1.42-85.1-27.44a172.36,172.36,0,0,1,10.83-41,151.71,151.71,0,0,0,28,16.63,24,24,0,0,0,9.84,26.42c9.67,6.38,23.32,12.57,38.08,10.44l-.28,0Z"/><path class="cls-26" d="M266.55,211.13l0,.05a22.81,22.81,0,0,1-4.8,5.48,39.53,39.53,0,0,1-12.58,7.18c-5.49,2-18,11.24-28.16,12.91l-1.51.25-1,.18h0c-15,2.16-29.27-3.76-38.59-10.78-11.18-8.42-17.54-22.71-14.53-32.55l.49-1.59a13.46,13.46,0,0,1,21.56-6.34,301.52,301.52,0,0,0,30,22.34,37.79,37.79,0,0,0,10.19.14c5.19-1.25,11-3.31,15.06-3.09,2.83-.81,5.55-1.68,8-2.55a53.91,53.91,0,0,1,6.82-3.8,15.63,15.63,0,0,1,6-1.26Z"/><path class="cls-18" d="M266.55,211.13l0,.05a22.81,22.81,0,0,1-4.8,5.48,22.74,22.74,0,0,1-4.11-9.48c-.34-2.38-.53-6.91-.14-8.22a15.63,15.63,0,0,1,6-1.26Z"/><path class="cls-27" d="M218.13,237s-15.58-.36-24.82-5.73-21.43-14.08-21.43-14.08.74,7.9,4.39,10.25,9.48,5.12,11.2,9.29,13.1,5.7,13.74,11.71,11.2,18.77,11.2,18.77S220,246.41,218.13,237Z"/><path class="cls-28" d="M200.62,175.82s-8.19,24.39,16.75,32.45c0,0-.52-3.33-4.18-8.06s-4.55-2.62-7.86-7.78S210.08,177.62,200.62,175.82Z"/></g></g><g id="girl"><g id="leg-2" data-name="leg"><path class="cls-29" d="M405.72,480.7c-7,0-11.74,2.64-17,3.7a19.65,19.65,0,0,1-5.13.4,20.08,20.08,0,0,1-5.85-1.27c-11.16-4.12-12.22-7.89,1.69-9.86l0,0c-.36.35-4.11,4.17,4.58,4.42,8.93.26,21.47-2.78,25.47-6.5l.22-.21h0a14.45,14.45,0,0,1,1.16,1.79C412.36,475.89,413.87,480.7,405.72,480.7Z"/><path class="cls-16" d="M409.07,462.31a14,14,0,0,0,.63,9.09h0l-.19.25c-1.49,1.86-11.38,12.94-31.11,5.35,0,0-2-.91,1-3.31l0,0c3-2.41,12.24-1.72,16-13,3.45-15.19-.88-29.34-5-53-4.43-25.21,0-51.78,0-51.78l11.24,4.44,3.41,1.35c-2,24.87,12.29,75.93,4.69,98.77C409.49,461.11,409.28,461.72,409.07,462.31Z"/><path class="cls-25" d="M409.71,471.39a14.45,14.45,0,0,1,1.16,1.79,10.07,10.07,0,0,1-1.36-1.53l0,0c-1.65-2.3-3.31-6.55-.8-13.07,4.08-10.62-2.44-21.42-.42-32.42s-3.66-32-6.77-42.09S405,361.69,405,361.69c-2,24.87,12.29,75.93,4.69,98.77-.21.64-.42,1.26-.63,1.84a14,14,0,0,0,.63,9.09Z"/><path class="cls-25" d="M407.42,465.66s.63,4.05-2.23,5-8.44,8.06-18.77,8.52l7.73,1.62,15.33-9.23Z"/><path class="cls-30" d="M388.75,484.4a19.65,19.65,0,0,1-5.13.4c-2.88-4.82,5.53-5.22,5.89-5.24h0A5.13,5.13,0,0,1,388.75,484.4Z"/><g id="shose"><path class="cls-16" d="M444.19,362.38,401.61,343.3v17l3.41,1.35c-2,24.87,9.2,74.61,7.15,92s-8.32,21.14-8.32,21.14c-3.44,1.92-6.95,2.31-8.59,3.62-3,2.42-1.06,3.33-1.06,3.33,21.48,8.26,31.31-5.61,31.31-5.61a14.13,14.13,0,0,1,0-10.93s17-50.4,12.22-70.49S444.19,362.38,444.19,362.38Z"/><path class="cls-29" d="M425.5,476.16s7.34,9.31-4,9.31-16.79,6.95-28,2.83-12.22-7.89,1.69-9.87c0,0-4.56,4.18,4.55,4.45S421.77,480,425.5,476.16Z"/></g></g><path id="dress" class="cls-7" d="M377.28,302.09s42.09,20.49,76.25,0c0,0,11.66,21.71-13,71.09,0,0-28.95,5.32-53.71-5.16C386.78,368,374,338.49,377.28,302.09Z"/><path class="cls-31" d="M404.85,373.12s-4.48-17.27,1.44-41.17"/><g id="head-2" data-name="head"><g id="neck-2" data-name="neck"><path class="cls-16" d="M421.07,157.29s-16.33,25-37.55,23.76h0c.23-.18,15.77-12.43,14-25.94l8.39-9.18,6.85-7.5S411.09,154,421.07,157.29Z"/><path class="cls-25" d="M407.07,157.29c-1.76,3.17-4.44,2.65-6.71,9.67s-16.61,14-16.83,14.09c.23-.18,15.77-12.43,14-25.94l8.39-9.18,2,.69S408.82,154.12,407.07,157.29Z"/></g><path id="hair" class="cls-32" d="M422.32,85.65c-4.14-1.59-7.61,1.1-9.61,3.3-7.07-2.92-13.12,1.27-16.19,4.15-7-.78-13.62.39-17.49,3.33-12.63,9.6,2.24,23.75,2.24,23.75L396.44,135l22.75-4.47c2.6-6,3.45-11.27,3-15.79,2.46-2.35,3.51-7.29,2-12.51C430.54,98.75,428.34,88,422.32,85.65Z"/><g id="face-2" data-name="face"><path class="cls-16" d="M414.54,137.42h0s-4.72,21.31-18.32,21.5S381,137.15,381,137.15s-10.7,2.72-6.35-.91,7.87-19.8,8-20.31h0c1.63,8.71,17.05,4.35,22.13,10.88s8.34-2.36,13.06.36S414.73,137.24,414.54,137.42Z"/><path class="cls-25" d="M414.54,137.42c4.68-5.68,4.19-11.35-1.28-8.56s-7.13.31-11-2.48-8.55-1.86-14.44-3.41a6.6,6.6,0,0,1-5.25-7h0c1.63,8.71,17.05,4.35,22.13,10.88s8.34-2.36,13.06.36S414.73,137.24,414.54,137.42Z"/></g></g><path class="cls-16" d="M323.28,179.1s-2,9.22-4.26,13.13l-8.1-4.22V173.43Z"/><path class="cls-33" d="M383.52,181.05l-5.75,23.44-8.27,12.37H356.43s-2.8-2.49-7.95-6.31a223.08,223.08,0,0,0-36.22-21.79s4.14-6.29,3.36-13.18c0,0,32.22,16.94,45.81,14.57a55.57,55.57,0,0,0,19.83-7.56C382.74,181.67,383.52,181.05,383.52,181.05Z"/><path class="cls-16" d="M316.1,201.18s-1.1,9.88-7.08,11.47c-5.61-1.52-5.12-.85-14,1.1s-10.49-7.2-10.49-7.2l26.11-1.1v-6.71Z"/><path class="cls-34" d="M383.52,181.05l-5.75,23.44-8.27,12.37H356.43s-2.8-2.49-7.95-6.31c1.75.34,3.61.14,8.07,0,7.78-.18,2.76-7.43,6.69-9.77s3.93-6.16,7.64-10a86.67,86.67,0,0,1,10.38-8.24C382.58,181.68,383.47,181.09,383.52,181.05Z"/><path class="cls-21" d="M409.48,257.41l-18.32-22.77c-10.74-44.89,1.24-55.31,1.24-55.31l-8.88,1.72s-26.72,22.44-15.83,49.41,9.6,71.62,9.6,71.62c4.67,2.63,23,12.19,23,12.19l-2-18.18Z"/><path class="cls-33" d="M453.53,302.09c-38.17,28.85-56.86,9.55-56.86,9.55s-9.2-18.16.45-32.39c2.75-4.06,3.45-9.43,3-15h0c-1-13.93-8.87-29.31-9-29.56h0c-12.45,8.4-25.46,7.79-33.71,3-8.67-5.05-48.43-25-48.43-25,5.73-1.83,7.08-11.47,7.08-11.47s8.81,3.67,29.31,9.95c21.24,6.51,41.71-14.87,41.71-14.87-2.29-11.06,5.29-16.92,5.29-16.92,20.42-9.53,28.67-22,28.67-22,11.23,17.59,23.32,45.29,20.21,75.79S453.53,302.09,453.53,302.09Z"/><path class="cls-34" d="M401.52,292.28s-.1,13,15.91,19.61"/><path class="cls-34" d="M414.06,213.67c-1.15,2.45-3.89,7.86-6.63,9.87-3.59,2.63-8.14,7.6-7.82,9.29s-7.19,5.07-2.54,13.58a30.55,30.55,0,0,1,3.09,17.81c-1-13.93-8.87-29.31-9-29.56h0S409.64,222.08,414.06,213.67Z"/></g><path class="cls-18" d="M208.8,277.81c-1.24,3.43-2.09,5.59-2.09,5.59-5.7-11.79-39.65,7.87-62.09-1.64A33.85,33.85,0,0,1,130.42,271c.18.16,15.11,12.88,45.09,5.9C195.38,272.3,204.74,275.26,208.8,277.81Z"/><path class="cls-28" d="M223.16,207.13a22.07,22.07,0,0,1-5.51,1.13h-.29L213.19,178l0,.06c.34.92,4.7,12.76,5,17.47C218.37,199.31,221.65,204.79,223.16,207.13Z"/><path class="cls-4" d="M310.07,49.31h96.3s-4.82-6.5-16.16-4.64-7.45-14.39-25.42-9.29-22.15,13.4-35.15,6.47S310.07,49.31,310.07,49.31Z"/><path class="cls-4" d="M42.65,123.44h80.44s-12-5.08-23.13-3.87-10.37-10.87-21.42-6.91S73.06,122.84,42.65,123.44Z"/><path class="cls-4" d="M421.07,127h80.44s-12-5.08-23.13-3.87S468,112.23,457,116.18,451.48,126.36,421.07,127Z"/><path class="cls-35" d="M149.93,313.72a55.78,55.78,0,0,1-10.07-6.46h-.06l-2.2,0c-14.21-.3-22.35,7.52-20.39,14.52,0,0,12.22-13,29.4-6.7h0a60.28,60.28,0,0,0,9.38,6.71c12.45,7.3,16.07,17.32,23,27.4s9.18,26.15,21.52,41.07S220,443.91,220,443.91l9.71-.67C216.89,399.22,178.58,328.28,149.93,313.72Z"/></svg>